<svg xmlns="http://www.w3.org/2000/svg" viewBox="0 0 258 56.7" fill="#fff"><path d="M64.4 46.5l1.7 7.3h.3l2-7.2h1.3l2 7.2h.3l1.7-7.3H75L73 55h-2.2L69 48.4 67.3 55h-2.1l-2-8.5h1.2zM83 53.8v1s-1.9.3-3.3.3c-2.5 0-3.4-1.5-3.4-4.4 0-3.2 1.4-4.5 3.6-4.5s3.4 1.2 3.4 4l-.1 1h-5.6c0 1.8.6 2.7 2.2 2.7 1.4.1 3.2-.1 3.2-.1zm-.9-3.6c0-2-.7-2.8-2.1-2.8-1.5 0-2.3.8-2.3 2.8h4.4zm10.4.4c0 3.4-.9 4.6-4 4.6-1 0-2.9-.2-2.9-.2V42.8h1.3v4.1s1.3-.6 2.5-.6c2.3 0 3.1 1.2 3.1 4.3zm-1.3 0c0-2.2-.4-3.1-1.9-3.1-1.1 0-2.4.5-2.4.5v6l1.6.1c2.3-.1 2.7-1.2 2.7-3.5zm9.2-2.9s-1.9-.3-3-.3-1.8.3-1.8 1.3c0 .8.4 1 2.1 1.3 2.2.4 3.1.8 3.1 2.5 0 2-1.3 2.7-3.3 2.7-1.1 0-3-.3-3-.3l.1-1.1s1.9.3 2.8.3c1.4 0 2.1-.3 2.1-1.5 0-.9-.4-1.1-2.1-1.4-2.1-.3-3-.7-3-2.4 0-1.9 1.5-2.5 3.1-2.5 1.3 0 3.1.3 3.1.3l-.2 1.1zm4.2-.1v4c0 1.9.1 2.4 1.2 2.4.5 0 1.5-.1 1.5-.1l.1 1.1s-1.1.2-1.7.2c-1.8 0-2.4-.7-2.4-3.1v-4.4h-1.2v-1.2h1.2v-2.6h1.3v2.6h2.7v1.2h-2.7zm11.3-1.1V55h-1.3v-.5s-1.3.7-2.5.7c-2.4 0-2.9-1.1-2.9-4.2v-4.4h1.3V51c0 2.3.2 3.1 1.8 3.1 1.1 0 2.3-.6 2.3-.6v-6.9h1.3zm9.2 8.5h-1.3v-.6s-1.3.7-2.6.7c-1.6 0-3-.7-3-4.4 0-3 1-4.5 3.6-4.5.7 0 1.8.2 2.1.2v-3.5h1.3V55zm-1.3-1.7v-5.7c-.3 0-1.3-.2-2-.2-1.8 0-2.3 1.1-2.3 3.3 0 2.7.9 3.2 1.9 3.2 1.1.1 2.4-.6 2.4-.6zm4.2-10.2h1.3v1.5H128v-1.5zm0 3.4h1.3V55H128v-8.5zm10.7 4.1c0 2.9-.7 4.5-3.6 4.5s-3.7-1.4-3.7-4.5c0-2.9 1-4.3 3.7-4.3 2.6 0 3.6 1.4 3.6 4.3zm-1.3 0c0-2.3-.7-3.2-2.3-3.2-1.8 0-2.3.8-2.3 3.1 0 2.4.3 3.4 2.3 3.4s2.3-1 2.3-3.3z"/><path fill-rule="evenodd" d="M39 42.8l-2.8 2.5-6.8-6.1 2.8-2.5 6.8 6.1zM16.7 12.6l2.8-2.5 6.8 6.1-2.8 2.5-6.8-6.1zM54 27.7c0-7.3-3-13.8-7.7-18.6l-1.7 1.5c4.4 4.3 7.2 10.4 7.2 17 0 13.2-10.7 23.9-23.9 23.9-3.5 0-6.7-.7-9.7-2.1L16.4 51c3.5 1.7 7.4 2.7 11.5 2.7 14.4.2 26.1-11.5 26.1-26zm-15 0l-6.8-6.1-2.8 2.5 4 3.6-20.6 18.6-1.7 1.5c1 .8 2 1.6 3.1 2.2l1.8-1.6 23-20.7zm-35.1 0c0-13.2 10.7-23.9 23.9-23.9 3.5 0 6.7.7 9.7 2.1l1.8-1.6C35.9 2.5 32 1.5 27.8 1.5 13.4 1.5 1.7 13.3 1.7 27.7c0 7.3 3 13.8 7.7 18.6l1.7-1.5c-4.4-4.4-7.2-10.4-7.2-17.1zM44.6 7.6c-1-.8-2-1.6-3.1-2.2L39.7 7l-23 20.7 6.8 6.1 2.8-2.5-4-3.6L44.6 7.6z"/><path d="M68.1 28.5c-1.7-.5-3-1.2-3.9-2.1s-1.4-2.4-1.4-4.2c0-2.3.8-4 2.4-5.3S69 15 71.9 15a18.7 18.7 0 0 1 3.4.3c1.1.2 2.2.5 3.4.9l-3 4c-.2-.1-.4-.1-.6-.2-.9-.2-1.8-.3-2.7-.3-1 0-1.8.2-2.4.5s-.9.8-.9 1.5.2 1.1.6 1.4 1 .5 1.7.8l2.6.8c.8.2 1.6.5 2.3.9.7.3 1.2.8 1.7 1.3a3.99 3.99 0 0 1 1.1 1.9c.3.7.4 1.7.4 2.7 0 1.1-.2 2.1-.7 3.1s-1.1 1.8-2 2.5-1.9 1.3-3.2 1.7-2.7.6-4.3.6c-.7 0-1.4 0-2-.1-.6 0-1.2-.1-1.7-.2-.6-.1-1.1-.2-1.6-.4-.5-.1-1.1-.3-1.7-.6l.4-2.4c.2-.8.5-1.6.9-2.4 1 .4 1.9.7 2.8.9a12.65 12.65 0 0 0 2.8.3c.4 0 .9 0 1.4-.1s.9-.2 1.4-.4c.4-.2.8-.4 1.1-.8.3-.3.4-.7.4-1.2 0-.7-.2-1.2-.6-1.5s-1-.6-1.8-.8l-3-1.2zm32.2-13.3c.2 0 .4 0 .6.1.4.1.9.1 1.3.2.1.1.2.4.2.6.1.3.1.6.2.9s.1.6.2.9.1.6.1.8c.7-.9 1.5-1.8 2.4-2.5 1-.7 2.2-1.1 3.6-1.1h1c.4 0 .7.1.9.1.1.3.1.6.1 1v1.2c0 .5 0 1.1-.1 1.7 0 .6-.1 1.2-.2 1.7-.3-.1-.7-.1-1.1-.1h-.7c-.5 0-1.1.1-1.7.2s-1.2.4-1.8.8-1 1.1-1.4 2-.6 2.2-.6 3.8v11c-.5.1-1.1.1-1.6.2h-3.1c-.5 0-1.1-.1-1.6-.2V19.4l3.3-4.2zm22.2 23.9c-1.9 0-3.5-.3-4.9-.9s-2.5-1.5-3.4-2.6-1.6-2.4-2.1-3.8c-.5-1.5-.7-3-.7-4.7s.2-3.3.7-4.8 1.1-2.8 2.1-3.9c.9-1.1 2.1-1.9 3.4-2.6 1.4-.6 3-.9 4.9-.9s3.5.3 4.9.9 2.6 1.5 3.5 2.6 1.6 2.4 2.1 3.9c.4 1.5.7 3.1.7 4.8s-.2 3.3-.7 4.7c-.4 1.5-1.1 2.7-2.1 3.8-.9 1.1-2.1 1.9-3.5 2.6-1.4.6-3 .9-4.9.9zm0-4.8c1.7 0 2.9-.6 3.6-1.9.7-1.2 1.1-3 1.1-5.4 0-2.3-.4-4.1-1.1-5.4-.7-1.2-1.9-1.9-3.6-1.9-1.6 0-2.8.6-3.6 1.9-.7 1.2-1.1 3-1.1 5.4 0 2.3.4 4.1 1.1 5.4.8 1.3 2 1.9 3.6 1.9zm17.3-19.1c.2 0 .4 0 .6.1.4 0 .8.1 1.2.2.1.1.2.4.2.6.1.3.1.6.2.9s.1.6.2.9c0 .3.1.6.1.8.3-.4.7-.9 1.1-1.3s.9-.9 1.5-1.2c.6-.4 1.2-.6 1.9-.9.7-.2 1.4-.3 2.3-.3 2.6 0 4.6.7 5.9 2.2 1.3 1.4 2 3.7 2 6.8v14.8a17.33 17.33 0 0 1-3.2.3c-1 0-2.1-.1-3.2-.3V25.5c0-1.6-.2-2.9-.7-3.7-.5-.9-1.4-1.3-2.6-1.3-.5 0-1 .1-1.6.2-.5.1-1 .4-1.5.9-.4.4-.8 1-1.1 1.8s-.4 1.8-.4 3v12.1a17.33 17.33 0 0 1-3.2.3c-1 0-2.1-.1-3.2-.3V19.4l3.5-4.2zm33.7 19.5c2.7.1 4.7.7 6 1.8s1.9 2.8 1.9 4.9c0 1.3-.3 2.4-1 3.4a9.58 9.58 0 0 1-2.7 2.6c-1.1.7-2.5 1.3-4 1.7-1.6.4-3.2.6-5 .6s-3.3-.1-4.6-.4-2.3-.7-3.1-1.2-1.4-1.1-1.7-1.9c-.3-.7-.5-1.6-.5-2.5 0-1.3.3-2.4 1-3.3.6-.9 1.5-1.6 2.6-2.3a4.63 4.63 0 0 1-1.6-1.5c-.4-.6-.6-1.4-.6-2.4 0-1.1.2-2.1.7-2.8s1.2-1.4 2.1-2.1c-1-.7-1.9-1.7-2.4-2.7-.6-1.1-.9-2.3-.9-3.6 0-1.2.2-2.2.7-3.2.4-1 1.1-1.9 1.9-2.6.9-.7 1.9-1.3 3.1-1.7s2.6-.6 4.1-.6 2.9.2 4.1.7c1.3.5 2.3 1.1 3.1 1.8.6-.7 1.3-1.3 2.1-1.7s2-.6 3.4-.6c.1.4.1.8.2 1.1 0 .4.1.8.1 1.2 0 .5.7 1.1.7 1.5 0 .5.3 2.2-.1 1.9-2-1.3-3.6-.9-4.4-.6.1.3.3.7.4 1.1a7.18 7.18 0 0 1 .2 1.7 8.29 8.29 0 0 1-.6 3.2c-.4 1-1.1 1.9-1.9 2.6s-1.9 1.3-3.1 1.7-2.6.6-4.1.6c-1.3 0-2.4-.1-3.4-.4-.5.3-.8.7-.9 1.1s-.2.7-.2 1.1c0 .5.2.9.5 1.2s.9.5 1.9.5l6 .1zm-5.7 4.7c-.7 0-1.2 0-1.6.2s-.8.4-1 .7c-.3.3-.4.6-.5.9s-.2.7-.2 1c0 1.1.4 1.9 1.3 2.3s2 .6 3.4.6c1.9 0 3.4-.3 4.5-.9s1.7-1.4 1.7-2.4c0-.3 0-.6-.1-.9s-.2-.5-.4-.7-.5-.4-.9-.6c-.4-.1-.9-.2-1.5-.2h-4.7zm1.8-12.3c1.3 0 2.2-.4 2.7-1.1.6-.7.8-1.7.8-3s-.3-2.2-.8-3c-.6-.7-1.5-1.1-2.7-1.1-1.3 0-2.2.4-2.8 1.1s-.9 1.7-.9 3 .3 2.2.9 3 1.6 1.1 2.8 1.1z"/><path d="M181.4 15.2c1-.1 3.7.2 4.9.4l4.5 18.8 5.1-18.8c.3-.1.7-.1 1.1-.1h1.2c.5 0 .9.1 1.2.1s.7.1 1 .1l5 18.5 4.5-18.5c.3-.1.7-.1 1-.1h2.2c.4 0 .8.1 1.2.1l-6.9 23c-.4.1-.8.1-1.2.1H204c-.4 0-.8-.1-1.2-.1L198 21.2l-5.2 17.4c-.4.1-.8.1-1.2.1h-2.2c-.4 0-.8-.1-1.1-.1l-6.9-23.4zm47.2 12.6c-.4-.1-1-.1-1.7-.2s-1.3-.1-1.7-.1c-1.9 0-3.3.3-4.2 1-1 .7-1.5 1.7-1.5 3.1 0 .9.2 1.6.5 2.1s.7.9 1.2 1.2 1 .4 1.6.5 1.2.1 1.7.1l2.1-.1 1.9-.3v-7.3h.1zm0-4.4c0-1.8-.4-3-1.3-3.7s-2.2-1-3.9-1c-1 0-2 .1-2.9.2l-2.7.6c-.6-1-.9-2.2-.9-3.5 1-.3 2.1-.6 3.4-.8a21.59 21.59 0 0 1 3.5-.3c3 0 5.3.7 6.8 2 1.6 1.4 2.3 3.5 2.3 6.5V38l-3.8.7c-1.5.3-3 .4-4.6.4-1.5 0-2.8-.1-4-.4s-2.2-.7-3-1.3-1.5-1.4-1.9-2.3-.7-2-.7-3.4c0-1.3.3-2.4.8-3.4a6.11 6.11 0 0 1 2.1-2.4c.9-.6 1.9-1.1 3.1-1.4s2.4-.5 3.7-.5l2.4.1c.6 0 1.1.1 1.5.2v-.9zM245.1 37l6.6-21.4c.6-.1 1.4-.1 2.2-.1h1.1c.4 0 .8.1 1.3.1l-8.9 27.6c-.4 1.2-.9 2.3-1.3 3.1s-1 1.5-1.5 2c-.6.5-1.2.9-1.9 1.1s-1.5.3-2.4.3c-.7 0-1.4-.1-2-.2-.7-.1-1.3-.2-1.8-.4 0-.7.1-1.3.2-1.8a9.83 9.83 0 0 1 .5-1.6 8.11 8.11 0 0 0 1.1.3c.5.1 1 .2 1.5.2.4 0 .8 0 1.1-.1s.7-.2 1-.4.6-.5.8-1c.3-.4.5-1 .7-1.7l1.4-4.3.3-1.7zm-3.5 1l-7.4-22.4c.4-.1.8-.1 1.2-.1h2.5c.5 0 .9.1 1.2.1l4.9 16.5-1.3 4.1-.4 1.6c0 .3-.4.4-.7.2zm-159-17.8h-2.9l-.2-.9 8.4-10.7h1v6.8h5.4c.1.4.1.9.2 1.2v2.3c0 .4-.1.8-.2 1.3h-5.4v9.1c0 .9.1 1.7.2 2.2.1.6.4 1 .6 1.3.3.3.6.6 1.1.7.4.1.9.2 1.5.2.4 0 .9 0 1.3-.1s.8-.1 1.1-.2c.2.6.4 1.2.4 1.8.1.6.1 1.2.1 1.6v.8c0 .2 0 .4-.1.6-1.4.3-2.8.5-4.3.5-2.7 0-4.8-.6-6.2-1.9s-2.2-3.3-2.2-6.2V20.2z"/></svg>